# This file uses centimeters as units for non-parametric coordinates.

mtllib Worn_Paper_Figures_OBJ.mtl
g default
v -5.764029 3.682312 28.678001
v -9.995045 4.352730 -29.608147
v -4.881109 3.315140 -30.995979
v -0.615858 3.815857 29.001534
v -16.533537 5.123993 -29.530945
v -12.180687 2.398392 29.758657
v -12.785404 4.848099 -29.297142
v -8.533382 3.240021 29.160025
v 2.039545 3.755844 28.857109
v 0.376823 3.651688 -30.262741
v 8.168936 2.544220 28.167992
v 7.158072 5.154648 -31.385895
v -28.180826 3.544037 -28.185852
v -29.345909 3.331848 -27.844971
v -30.169903 3.235626 -27.043739
v -30.421371 3.244438 -25.992317
v -23.855246 0.531006 30.317467
v -25.805502 0.537491 28.854607
v -25.970688 0.624100 29.899391
v -25.070059 0.571869 30.114082
v 18.052242 0.202393 28.333992
v 19.286310 0.242584 28.359871
v 20.131422 0.166306 27.511116
v 20.402822 0.052673 26.482674
v 13.702969 5.166069 -31.311457
v 16.529745 4.348183 -30.379440
v 16.122221 4.617332 -31.399185
v 15.612679 4.732666 -31.221186
v -24.606850 0.438522 28.766319
v -23.416794 0.376862 28.699148
v -12.442282 2.180237 27.722038
v -8.743080 3.188721 27.493063
v -5.920696 3.746185 27.287941
v -0.768682 4.201355 26.955299
v 1.976374 4.151718 26.803612
v 8.136707 2.614792 26.448021
v 17.929501 -0.074829 26.652763
v 19.163898 -0.060791 26.567879
v 15.279392 4.671059 -30.295654
v 13.828229 4.974800 -30.198410
v 7.187420 4.998688 -29.756767
v 0.335567 3.631950 -29.435379
v -4.770853 3.392937 -29.182266
v -9.943331 4.387169 -28.795540
v -12.737074 4.898300 -28.528809
v -16.448795 5.281914 -28.083290
v -28.046585 3.739189 -26.093605
v -29.227970 3.479919 -26.034920
v -26.941580 1.030258 20.051079
v -25.777214 0.827423 19.986382
v -24.628748 0.596909 19.936226
v -13.607224 2.307251 19.595434
v -9.833136 2.575134 19.282600
v -6.881115 2.484177 19.004494
v -1.460096 3.749695 18.508018
v 1.799938 4.348068 18.238121
v 8.044246 3.134613 17.809853
v 17.245953 0.264206 17.177559
v 18.516481 0.180527 17.090645
v 20.210264 0.215530 16.974800
v -26.570215 2.673950 10.736809
v -25.425423 2.543549 10.689369
v -24.306814 2.350204 10.646582
v -13.980814 2.092194 10.192345
v -10.193930 1.516846 9.884590
v -7.240664 0.956863 9.596397
v -1.933107 2.007263 9.071174
v 1.611297 2.785034 8.748817
v 7.872885 2.848602 8.296547
v 16.088984 1.759277 7.734596
v 17.395634 1.593964 7.645607
v 18.638371 1.462509 7.560860
v -26.759407 3.059196 1.205437
v -25.553812 3.243858 1.118690
v -24.389360 3.414215 1.033852
v -13.917860 3.441879 0.233124
v -10.363386 2.918770 -0.026497
v -7.543123 2.588593 -0.219482
v -2.401035 2.649063 -0.551987
v 1.382483 3.183014 -0.788734
v 7.701518 3.994553 -1.216797
v 15.405436 2.824562 -1.740601
v 16.748219 2.476929 -1.831642
v 17.992859 2.160934 -1.916153
v -28.104980 1.690010 -8.304771
v -26.941910 2.084038 -8.398270
v -25.803488 2.513626 -8.493584
v -15.015079 5.392143 -9.400017
v -11.283897 5.069008 -9.638351
v -8.419153 4.678772 -9.797958
v -3.208330 4.519028 -10.069206
v 1.053801 4.950310 -10.303726
v 7.530149 5.296654 -10.730133
v 15.195320 2.996910 -11.248032
v 16.574226 2.481468 -11.341141
v 17.820770 2.048347 -11.425408
v -29.726208 1.998390 -17.484741
v -28.534655 2.251373 -17.551987
v -27.349304 2.555367 -17.621468
v -15.727270 5.526901 -18.759148
v -11.985882 5.047592 -19.106239
v -9.144541 4.248436 -19.320610
v -3.908360 3.089485 -19.637428
v 0.755480 3.294968 -19.845657
v 7.358786 3.933533 -20.243446
v 13.880001 2.636246 -20.680214
v 15.295033 2.164246 -20.775406
v 16.543482 1.745384 -20.859406
v -26.645927 1.763214 15.197792
v -25.531824 1.587891 15.152657
v -24.436693 1.361435 15.112953
v -13.792656 3.830917 14.710823
v -10.060337 3.231628 14.401161
v -7.141251 2.195740 14.107536
v -1.804449 2.643967 13.561226
v 1.405687 3.450150 13.260185
v 7.565463 3.154007 12.792213
v 16.445862 1.255524 12.182106
v 17.691797 1.100601 12.096901
v 19.348412 0.971619 11.983650
v -26.813686 0.856323 21.530373
v -25.638903 0.656219 21.459068
v -24.484943 0.444489 21.404516
v -13.398300 1.645294 21.107580
v -9.645163 2.228699 20.801765
v -6.723940 2.650055 20.540703
v -1.341555 4.053329 20.074226
v 1.838606 4.525787 19.826805
v 8.072451 3.054276 19.419838
v 17.361649 -0.014648 18.781303
v 18.626057 -0.075928 18.694725
v 20.284094 0.065506 18.058662
v 12.614258 5.357330 -31.609085
v 12.750292 5.138702 -30.126183
v 12.735209 2.990082 -20.603073
v 14.004683 3.452957 -11.167390
v 14.210541 3.122040 -1.659325
v 14.837738 1.936111 7.820076
v 15.121531 1.469299 12.272896
v 15.886272 0.458618 17.270775
v 15.992432 0.170151 18.875206
v 16.513468 0.033142 26.750160
v 16.623360 0.287354 28.393135
v 11.470915 5.450264 -31.503784
v 11.589542 5.248581 -30.048410
v 11.502466 3.326515 -20.519997
v 12.722578 3.932594 -11.080589
v 12.923842 3.411667 -1.571808
v 13.490353 2.138214 7.912086
v 13.695453 1.744019 12.370613
v 14.422125 0.779663 17.371162
v 14.518020 0.495895 18.976357
v 14.988644 0.289841 26.855049
v 15.109324 0.572510 28.818504
v 12.043411 5.396622 -31.368408
v 12.157829 5.203758 -30.086481
v 12.105993 3.169090 -20.560677
v 13.350277 3.700821 -11.123078
v 13.553789 3.275177 -1.614662
v 14.150009 2.038254 7.867012
v 14.393637 1.604553 12.322762
v 15.138947 0.609619 17.321999
v 15.239866 0.321198 18.926842
v 15.735168 0.144821 26.803703
v 15.862629 0.450989 28.787315
v 3.429289 3.675613 28.780937
v 3.368966 4.050995 26.726723
v 3.301727 4.480835 19.724358
v 3.276960 4.351212 18.127449
v 2.848369 3.647003 13.135597
v 3.104276 2.950333 8.628120
v 2.889115 3.487297 -0.889671
v 2.646765 5.156898 -10.401527
v 2.404000 3.554733 -19.925728
v 2.090450 3.937241 -29.497993
v 2.104769 3.982635 -30.644203
v -18.734558 0.702637 29.021765
v -18.621582 0.534607 27.267723
v -19.574787 -0.014587 21.295584
v -19.743258 0.067001 19.819572
v -19.786739 1.080826 14.980675
v -19.743092 1.361374 10.475424
v -19.681913 3.812332 0.679420
v -21.056154 4.341301 -8.913628
v -22.202681 4.317535 -18.051636
v -22.877472 4.853127 -26.450905
v -22.996195 4.681496 -28.251900
vt 0.450341 0.039312
vt 0.495741 0.040562
vt 0.493854 0.190899
vt 0.446814 0.190597
vt 0.284482 0.040101
vt 0.366172 0.038728
vt 0.361590 0.191010
vt 0.287179 0.192640
vt 0.554122 0.192370
vt 0.555460 0.043713
vt 0.256105 0.040811
vt 0.260381 0.193222
vt 0.785438 0.199592
vt 0.766021 0.199795
vt 0.763150 0.062418
vt 0.782519 0.061757
vt 0.023471 0.040028
vt 0.044026 0.039439
vt 0.048729 0.196687
vt 0.027740 0.197374
vt 0.746516 0.199856
vt 0.659619 0.197316
vt 0.659539 0.062633
vt 0.743869 0.062780
vt 0.091807 0.195371
vt 0.072580 0.195924
vt 0.067589 0.039011
vt 0.084913 0.038903
vt 0.759128 0.968002
vt 0.750299 0.946969
vt 0.769532 0.947108
vt 0.773284 0.963637
vt 0.739916 0.972551
vt 0.731252 0.947160
vt 0.656557 0.957483
vt 0.653329 0.929579
vt 0.488314 0.970641
vt 0.490005 0.943912
vt 0.551557 0.943618
vt 0.548846 0.976399
vt 0.443914 0.943345
vt 0.442953 0.965654
vt 0.361046 0.975994
vt 0.361281 0.942828
vt 0.317608 0.942941
vt 0.318372 0.976231
vt 0.295397 0.943054
vt 0.295929 0.976251
vt 0.055598 0.985308
vt 0.055582 0.958107
vt 0.078173 0.958166
vt 0.078648 0.984735
vt 0.035883 0.958084
vt 0.035857 0.987113
vt 0.015968 0.958106
vt 0.021405 0.974410
vt 0.037817 0.025014
vt 0.029286 0.022950
vt 0.068695 0.020918
vt 0.085851 0.014914
vt 0.254914 0.022591
vt 0.283042 0.027000
vt 0.366069 0.009766
vt 0.450273 0.026351
vt 0.495649 0.028277
vt 0.555273 0.020530
vt 0.659772 0.033801
vt 0.744218 0.029274
vt 0.763406 0.033445
vt 0.777441 0.045314
vt 0.778528 0.828897
vt 0.759515 0.829209
vt 0.760153 0.805176
vt 0.779000 0.804627
vt 0.740864 0.829816
vt 0.741553 0.806012
vt 0.662969 0.833711
vt 0.664275 0.810194
vt 0.561555 0.837698
vt 0.500071 0.835668
vt 0.500898 0.810789
vt 0.561652 0.811596
vt 0.453541 0.808829
vt 0.452558 0.833750
vt 0.363600 0.832862
vt 0.364378 0.807332
vt 0.311432 0.806866
vt 0.312552 0.832124
vt 0.287989 0.806532
vt 0.289491 0.831879
vt 0.078648 0.832536
vt 0.056815 0.832390
vt 0.057700 0.806467
vt 0.079549 0.806578
vt 0.037388 0.806215
vt 0.036753 0.832167
vt 0.010304 0.805614
vt 0.009766 0.823365
vt 0.768663 0.725837
vt 0.750679 0.726693
vt 0.744084 0.653673
vt 0.762461 0.652958
vt 0.732872 0.727778
vt 0.725987 0.654634
vt 0.658603 0.731238
vt 0.651677 0.658978
vt 0.556204 0.733627
vt 0.499374 0.732543
vt 0.496320 0.657508
vt 0.558082 0.658291
vt 0.448842 0.656418
vt 0.451314 0.729622
vt 0.365533 0.726479
vt 0.363025 0.654168
vt 0.304703 0.653383
vt 0.312439 0.726236
vt 0.280474 0.653137
vt 0.289107 0.726055
vt 0.089675 0.724755
vt 0.068198 0.724731
vt 0.070647 0.653068
vt 0.090851 0.653066
vt 0.049614 0.653055
vt 0.048106 0.724630
vt 0.029677 0.653025
vt 0.021540 0.724324
vt 0.733348 0.500364
vt 0.752835 0.500754
vt 0.714513 0.499939
vt 0.638677 0.498196
vt 0.488278 0.499228
vt 0.545967 0.498265
vt 0.442673 0.500181
vt 0.360443 0.500967
vt 0.299423 0.500732
vt 0.274809 0.500350
vt 0.072805 0.500197
vt 0.092387 0.499892
vt 0.050752 0.500563
vt 0.030333 0.500895
vt 0.751300 0.347165
vt 0.770900 0.347604
vt 0.731878 0.346653
vt 0.650577 0.343869
vt 0.492382 0.341907
vt 0.552406 0.341214
vt 0.445983 0.343131
vt 0.362119 0.345093
vt 0.293426 0.346222
vt 0.267851 0.346443
vt 0.064451 0.348055
vt 0.084603 0.347669
vt 0.041123 0.348503
vt 0.020157 0.348893
vt 0.094376 0.038908
vt 0.095143 0.018165
vt 0.102327 0.195097
vt 0.095643 0.347458
vt 0.103115 0.499742
vt 0.101978 0.653055
vt 0.101532 0.724737
vt 0.091650 0.806583
vt 0.090750 0.832573
vt 0.090650 0.958212
vt 0.091558 0.990234
vt 0.173419 0.040523
vt 0.103423 0.038953
vt 0.104091 0.015449
vt 0.172442 0.014424
vt 0.180032 0.193884
vt 0.112376 0.194860
vt 0.190567 0.346534
vt 0.106190 0.347259
vt 0.197333 0.499280
vt 0.113376 0.499616
vt 0.203590 0.652974
vt 0.112663 0.653042
vt 0.213348 0.724841
vt 0.112936 0.724708
vt 0.210492 0.805686
vt 0.103329 0.806558
vt 0.211384 0.831559
vt 0.102445 0.832585
vt 0.216386 0.944316
vt 0.102702 0.958255
vt 0.103841 0.989873
vt 0.217587 0.971799
vn 0.207581 0.978177 -0.008953
vn 0.157987 0.986960 -0.030813
vn 0.155012 0.987676 -0.021613
vn 0.179757 0.982803 -0.042260
vn -0.074990 0.996670 0.032029
vn 0.084962 0.996303 0.012740
vn 0.056221 0.997057 -0.052118
vn -0.085745 0.994733 -0.056164
vn -0.051617 0.998621 0.009571
vn -0.028554 0.999518 -0.012161
vn -0.150013 0.986286 0.068819
vn -0.114406 0.992505 -0.042954
vn -0.226032 0.967471 0.113618
vn -0.243228 0.963756 0.109610
vn -0.205785 0.970983 0.121838
vn -0.191258 0.972306 0.134319
vn 0.289441 0.925908 0.242732
vn 0.273983 0.933179 0.232615
vn 0.304837 0.948531 0.085814
vn 0.308593 0.947311 0.085865
vn -0.291393 0.952515 0.088349
vn -0.217916 0.974605 0.051545
vn -0.175054 0.983682 0.041548
vn -0.245199 0.965428 0.088464
vn 0.275237 0.959317 0.062890
vn 0.293230 0.953058 0.075476
vn 0.246790 0.943570 0.220838
vn 0.214987 0.953918 0.209336
vn 0.060258 0.995185 -0.077307
vn 0.110890 0.993827 -0.003425
vn 0.119365 0.992830 0.006312
vn 0.075931 0.994547 -0.071488
vn -0.033281 0.994523 -0.099076
vn 0.021563 0.998597 -0.048355
vn -0.167865 0.981121 -0.096034
vn -0.144929 0.988057 -0.052335
vn -0.220506 0.975266 -0.015249
vn -0.201654 0.975838 -0.084116
vn -0.240090 0.968695 -0.063136
vn -0.246371 0.966747 -0.068566
vn -0.163298 0.985032 -0.055195
vn -0.093530 0.990575 0.100070
vn -0.020832 0.987585 0.155699
vn -0.116169 0.993229 0.000644
vn -0.014124 0.997802 0.064749
vn 0.044803 0.981831 0.184394
vn 0.234192 0.969565 0.071397
vn 0.221705 0.967002 0.125519
vn 0.016759 0.986577 -0.162438
vn 0.056234 0.998072 -0.026264
vn 0.120323 0.992438 -0.024278
vn 0.088525 0.983004 -0.160831
vn -0.040507 0.998972 -0.020339
vn -0.042081 0.986297 -0.159521
vn -0.086728 0.996183 -0.009862
vn -0.084848 0.985020 -0.150120
vn 0.234661 0.960961 0.146590
vn 0.260067 0.953520 0.152203
vn 0.177030 0.974082 0.140798
vn 0.136297 0.980980 0.138205
vn -0.202706 0.977083 0.064959
vn -0.081371 0.996634 -0.009979
vn 0.066192 0.997110 -0.037284
vn 0.181614 0.981801 -0.055524
vn 0.114392 0.989673 -0.086383
vn -0.039568 0.994572 -0.096233
vn -0.150046 0.984858 -0.086843
vn -0.213739 0.973866 -0.076819
vn -0.203443 0.976577 -0.070053
vn -0.187323 0.980309 -0.062490
vn 0.134946 0.990300 0.033091
vn 0.131970 0.990934 0.025179
vn 0.184796 0.972032 0.144927
vn 0.170479 0.974676 0.144721
vn 0.059748 0.998157 -0.010658
vn 0.113664 0.981611 0.153365
vn -0.122350 0.992484 0.002289
vn -0.157707 0.964280 0.212822
vn -0.237433 0.971360 0.009293
vn -0.175584 0.983607 -0.041086
vn 0.072741 0.985010 0.156407
vn -0.217792 0.943299 0.250507
vn -0.073744 0.994817 -0.070010
vn -0.179151 0.980040 -0.086175
vn -0.155755 0.986164 -0.056758
vn -0.197549 0.969812 -0.142963
vn -0.164252 0.973475 -0.159273
vn -0.046094 0.998937 0.000203
vn 0.137970 0.986898 -0.083643
vn 0.234790 0.971237 0.039649
vn 0.134975 0.990306 0.032787
vn 0.072146 0.996931 0.030404
vn 0.125810 0.977721 0.168029
vn 0.171275 0.971065 0.166426
vn 0.055378 0.985267 0.161811
vn -0.033719 0.999141 0.024076
vn 0.025891 0.987216 0.157268
vn -0.071255 0.996763 0.037231
vn 0.155466 0.971158 0.180785
vn 0.175945 0.967008 0.184227
vn 0.050534 0.991801 0.117378
vn 0.031836 0.993906 0.105533
vn 0.128066 0.977432 0.168007
vn 0.089413 0.983170 0.159319
vn -0.148764 0.982067 0.115820
vn -0.021919 0.993067 0.115487
vn -0.172837 0.984818 0.016171
vn 0.141865 0.984562 -0.102527
vn 0.165615 0.986040 -0.017249
vn -0.011026 0.999293 0.035946
vn -0.006581 0.999933 0.009483
vn -0.028223 0.986710 -0.160019
vn -0.188357 0.968769 -0.161273
vn -0.146582 0.989137 0.011044
vn -0.178188 0.983991 -0.003303
vn -0.195126 0.968016 -0.157703
vn -0.038992 0.999132 0.014640
vn 0.062968 0.992015 -0.109274
vn 0.168554 0.976612 0.133487
vn 0.138848 0.980775 0.137119
vn 0.178965 0.979208 0.095512
vn 0.183817 0.977682 0.101736
vn 0.163270 0.982866 0.085542
vn 0.088682 0.986812 0.135414
vn 0.149969 0.985416 0.080398
vn 0.061491 0.988915 0.135155
vn -0.130099 0.991493 -0.004084
vn -0.136327 0.990444 -0.020856
vn -0.088896 0.992741 0.081018
vn -0.053592 0.989554 0.133831
vn 0.145239 0.974977 0.168304
vn 0.038473 0.985891 0.162908
vn 0.028092 0.985813 0.165481
vn -0.080538 0.985822 0.147201
vn -0.140253 0.981919 0.127141
vn -0.071059 0.990086 0.121165
vn 0.250252 0.966786 0.051941
vn 0.247580 0.966695 0.064843
vn 0.243598 0.969177 0.036818
vn 0.235999 0.971334 0.028553
vn -0.264661 0.964302 -0.008734
vn -0.252591 0.967537 -0.008332
vn -0.284603 0.958294 0.025966
vn -0.190718 0.979994 0.056902
vn 0.140228 0.985930 0.090987
vn -0.026511 0.996037 0.084902
vn 0.107136 0.992416 0.060262
vn -0.002945 0.999479 0.032142
vn -0.108737 0.994037 0.008164
vn -0.081800 0.996642 0.003628
vn 0.314029 0.948721 -0.036266
vn 0.308725 0.950619 -0.031832
vn 0.309307 0.950090 -0.040717
vn 0.302828 0.952091 -0.042633
vn 0.181909 0.963194 0.197907
vn 0.097810 0.985896 0.135801
vn 0.251822 0.966344 0.052593
vn 0.296009 0.954774 -0.028034
vn 0.239679 0.967871 0.076025
vn 0.184835 0.977122 0.105210
vn 0.194330 0.972794 0.126129
vn 0.212390 0.964031 0.159798
vn 0.196808 0.979825 0.034791
vn 0.182933 0.982846 -0.023426
vn 0.149908 0.976105 -0.157311
vn -0.059700 0.991872 0.112366
vn 0.052708 0.986480 0.155172
vn -0.045889 0.991802 0.119259
vn -0.130734 0.986796 0.095612
vn 0.009510 0.999868 -0.013208
vn 0.143008 0.989580 0.016753
vn 0.068376 0.997650 -0.004408
vn 0.205529 0.978606 -0.009421
vn 0.060711 0.991513 0.114959
vn 0.165474 0.980842 0.102796
vn 0.075258 0.995418 0.058991
vn 0.148063 0.985199 0.086377
vn 0.185276 0.982427 -0.022601
vn 0.239416 0.969803 0.046494
vn 0.263049 0.964713 0.011597
vn 0.301834 0.950207 0.077474
vn 0.323317 0.945439 0.040144
vn 0.334817 0.941492 0.038597
vn 0.316878 0.947893 0.032977
vn 0.321665 0.946846 0.003780
vn 0.286857 0.954870 -0.077046
vn 0.289038 0.957309 0.004094
s 1
g polySurface2
usemtl polySurface2SG
f 44/1/1 45/2/2 101/3/3 102/4/4
f 42/5/5 43/6/6 103/7/7 104/8/8
f 102/4/4 103/7/7 43/6/6 44/1/1
f 100/9/9 101/3/3 45/2/2 46/10/10
f 175/11/11 42/5/5 104/8/8 174/12/12
f 97/13/13 98/14/14 48/15/15 16/16/16
f 26/17/17 39/18/18 107/19/19 108/20/20
f 99/21/21 185/22/22 186/23/23 47/24/24
f 135/25/25 106/26/26 40/27/27 134/28/28
f 98/14/14 99/21/21 47/24/24 48/15/15
f 39/18/18 40/27/27 106/26/26 107/19/19
f 20/29/29 29/30/30 18/31/31 19/32/32
f 17/33/33 30/34/34 29/30/30 20/29/29
f 17/33/33 177/35/35 178/36/36 30/34/34
f 8/37/37 32/38/38 31/39/39 6/40/40
f 33/41/41 32/38/38 8/37/37 1/42/42
f 4/43/43 34/44/44 33/41/41 1/42/42
f 35/45/45 34/44/44 4/43/43 9/46/46
f 167/47/47 35/45/45 9/46/46 166/48/48
f 21/49/49 37/50/50 142/51/51 143/52/52
f 38/53/53 37/50/50 21/49/49 22/54/54
f 24/55/55 38/53/53 22/54/54 23/56/56
f 28/57/57 39/18/18 26/17/17 27/58/58
f 25/59/59 40/27/27 39/18/18 28/57/57
f 134/28/28 40/27/27 25/59/59 133/60/60
f 176/61/61 10/62/62 42/5/5 175/11/11
f 10/62/62 3/63/63 43/6/6 42/5/5
f 44/1/1 43/6/6 3/63/63 2/64/64
f 2/64/64 7/65/65 45/2/2 44/1/1
f 46/10/10 45/2/2 7/65/65 5/66/66
f 47/24/24 186/23/23 187/67/67 13/68/68
f 48/15/15 47/24/24 13/68/68 14/69/69
f 16/16/16 48/15/15 14/69/69 15/70/70
f 121/71/71 122/72/72 50/73/73 49/74/74
f 122/72/72 123/75/75 51/76/76 50/73/73
f 123/75/75 179/77/77 180/78/78 51/76/76
f 124/79/79 125/80/80 53/81/81 52/82/82
f 54/83/83 53/81/81 125/80/80 126/84/84
f 126/84/84 127/85/85 55/86/86 54/83/83
f 56/87/87 55/86/86 127/85/85 128/88/88
f 169/89/89 56/87/87 128/88/88 168/90/90
f 141/91/91 130/92/92 58/93/93 140/94/94
f 59/95/95 58/93/93 130/92/92 131/96/96
f 60/97/97 59/95/95 131/96/96 132/98/98
f 109/99/99 110/100/100 62/101/101 61/102/102
f 110/100/100 111/103/103 63/104/104 62/101/101
f 111/103/103 181/105/105 182/106/106 63/104/104
f 112/107/107 113/108/108 65/109/109 64/110/110
f 66/111/111 65/109/109 113/108/108 114/112/112
f 114/112/112 115/113/113 67/114/114 66/111/111
f 68/115/115 67/114/114 115/113/113 116/116/116
f 171/117/117 68/115/115 116/116/116 170/118/118
f 139/119/119 118/120/120 70/121/121 138/122/122
f 71/123/123 70/121/121 118/120/120 119/124/124
f 72/125/125 71/123/123 119/124/124 120/126/126
f 61/102/102 62/101/101 74/127/127 73/128/128
f 62/101/101 63/104/104 75/129/129 74/127/127
f 63/104/104 182/106/106 183/130/130 75/129/129
f 64/110/110 65/109/109 77/131/131 76/132/132
f 78/133/133 77/131/131 65/109/109 66/111/111
f 66/111/111 67/114/114 79/134/134 78/133/133
f 80/135/135 79/134/134 67/114/114 68/115/115
f 172/136/136 80/135/135 68/115/115 171/117/117
f 138/122/122 70/121/121 82/137/137 137/138/138
f 83/139/139 82/137/137 70/121/121 71/123/123
f 84/140/140 83/139/139 71/123/123 72/125/125
f 73/128/128 74/127/127 86/141/141 85/142/142
f 74/127/127 75/129/129 87/143/143 86/141/141
f 75/129/129 183/130/130 184/144/144 87/143/143
f 76/132/132 77/131/131 89/145/145 88/146/146
f 90/147/147 89/145/145 77/131/131 78/133/133
f 78/133/133 79/134/134 91/148/148 90/147/147
f 92/149/149 91/148/148 79/134/134 80/135/135
f 173/150/150 92/149/149 80/135/135 172/136/136
f 137/138/138 82/137/137 94/151/151 136/152/152
f 95/153/153 94/151/151 82/137/137 83/139/139
f 96/154/154 95/153/153 83/139/139 84/140/140
f 85/142/142 86/141/141 98/14/14 97/13/13
f 86/141/141 87/143/143 99/21/21 98/14/14
f 87/143/143 184/144/144 185/22/22 99/21/21
f 88/146/146 89/145/145 101/3/3 100/9/9
f 102/4/4 101/3/3 89/145/145 90/147/147
f 90/147/147 91/148/148 103/7/7 102/4/4
f 104/8/8 103/7/7 91/148/148 92/149/149
f 174/12/12 104/8/8 92/149/149 173/150/150
f 136/152/152 94/151/151 106/26/26 135/25/25
f 107/19/19 106/26/26 94/151/151 95/153/153
f 108/20/20 107/19/19 95/153/153 96/154/154
f 49/74/74 50/73/73 110/100/100 109/99/99
f 50/73/73 51/76/76 111/103/103 110/100/100
f 51/76/76 180/78/78 181/105/105 111/103/103
f 52/82/82 53/81/81 113/108/108 112/107/107
f 114/112/112 113/108/108 53/81/81 54/83/83
f 54/83/83 55/86/86 115/113/113 114/112/112
f 116/116/116 115/113/113 55/86/86 56/87/87
f 170/118/118 116/116/116 56/87/87 169/89/89
f 140/94/94 58/93/93 118/120/120 139/119/119
f 119/124/124 118/120/120 58/93/93 59/95/95
f 120/126/126 119/124/124 59/95/95 60/97/97
f 18/31/31 29/30/30 122/72/72 121/71/71
f 29/30/30 30/34/34 123/75/75 122/72/72
f 30/34/34 178/36/36 179/77/77 123/75/75
f 31/39/39 32/38/38 125/80/80 124/79/79
f 126/84/84 125/80/80 32/38/38 33/41/41
f 33/41/41 34/44/44 127/85/85 126/84/84
f 128/88/88 127/85/85 34/44/44 35/45/45
f 168/90/90 128/88/88 35/45/45 167/47/47
f 142/51/51 37/50/50 130/92/92 141/91/91
f 131/96/96 130/92/92 37/50/50 38/53/53
f 132/98/98 131/96/96 38/53/53 24/55/55
f 156/155/155 134/28/28 133/60/60 155/156/156
f 157/157/157 135/25/25 134/28/28 156/155/155
f 158/158/158 136/152/152 135/25/25 157/157/157
f 159/159/159 137/138/138 136/152/152 158/158/158
f 160/160/160 138/122/122 137/138/138 159/159/159
f 161/161/161 139/119/119 138/122/122 160/160/160
f 162/162/162 140/94/94 139/119/119 161/161/161
f 163/163/163 141/91/91 140/94/94 162/162/162
f 164/164/164 142/51/51 141/91/91 163/163/163
f 143/52/52 142/51/51 164/164/164 165/165/165
f 41/166/166 145/167/167 144/168/168 12/169/169
f 105/170/170 146/171/171 145/167/167 41/166/166
f 93/172/172 147/173/173 146/171/171 105/170/170
f 81/174/174 148/175/175 147/173/173 93/172/172
f 69/176/176 149/177/177 148/175/175 81/174/174
f 117/178/178 150/179/179 149/177/177 69/176/176
f 57/180/180 151/181/181 150/179/179 117/178/178
f 129/182/182 152/183/183 151/181/181 57/180/180
f 36/184/184 153/185/185 152/183/183 129/182/182
f 154/186/186 153/185/185 36/184/184 11/187/187
f 145/167/167 156/155/155 155/156/156 144/168/168
f 146/171/171 157/157/157 156/155/155 145/167/167
f 147/173/173 158/158/158 157/157/157 146/171/171
f 148/175/175 159/159/159 158/158/158 147/173/173
f 149/177/177 160/160/160 159/159/159 148/175/175
f 150/179/179 161/161/161 160/160/160 149/177/177
f 151/181/181 162/162/162 161/161/161 150/179/179
f 152/183/183 163/163/163 162/162/162 151/181/181
f 153/185/185 164/164/164 163/163/163 152/183/183
f 165/165/165 164/164/164 153/185/185 154/186/186
f 36/184/184 167/47/47 166/48/48 11/187/187
f 129/182/182 168/90/90 167/47/47 36/184/184
f 57/180/180 169/89/89 168/90/90 129/182/182
f 117/178/178 170/118/118 169/89/89 57/180/180
f 69/176/176 171/117/117 170/118/118 117/178/178
f 81/174/174 172/136/136 171/117/117 69/176/176
f 93/172/172 173/150/150 172/136/136 81/174/174
f 105/170/170 174/12/12 173/150/150 93/172/172
f 41/166/166 175/11/11 174/12/12 105/170/170
f 12/169/169 176/61/61 175/11/11 41/166/166
f 177/35/35 6/40/40 31/39/39 178/36/36
f 179/77/77 178/36/36 31/39/39 124/79/79
f 180/78/78 179/77/77 124/79/79 52/82/82
f 181/105/105 180/78/78 52/82/82 112/107/107
f 182/106/106 181/105/105 112/107/107 64/110/110
f 183/130/130 182/106/106 64/110/110 76/132/132
f 184/144/144 183/130/130 76/132/132 88/146/146
f 185/22/22 184/144/144 88/146/146 100/9/9
f 186/23/23 185/22/22 100/9/9 46/10/10
f 187/67/67 186/23/23 46/10/10 5/66/66
